<?xml version="1.0" standalone="no"?>
<!DOCTYPE svg PUBLIC "-//W3C//DTD SVG 20010904//EN"
 "http://www.w3.org/TR/2001/REC-SVG-20010904/DTD/svg10.dtd">
<svg version="1.0" xmlns="http://www.w3.org/2000/svg"
 width="18px" height="18px" viewBox="0 0 512.000000 512.000000"
 preserveAspectRatio="xMidYMid meet">

<g transform="translate(0.000000,512.000000) scale(0.100000,-0.100000)"
fill="#757D8A" stroke="none">
<path d="M2509 4901 c-94 -30 -144 -88 -158 -179 l-6 -45 -92 -18 c-266 -54
-518 -188 -721 -383 -233 -225 -365 -463 -439 -791 -12 -56 -17 -180 -23 -640
-7 -515 -10 -579 -28 -665 -54 -256 -116 -374 -383 -731 -113 -152 -211 -291
-217 -309 -26 -72 -8 -166 41 -218 12 -13 40 -34 62 -45 39 -22 48 -22 616
-25 l576 -3 13 -42 c34 -115 127 -263 222 -353 166 -160 362 -237 593 -237
228 1 415 77 584 237 93 90 187 238 221 353 l13 42 576 3 576 3 45 25 c88 50
132 159 100 255 -7 20 -105 161 -219 313 -253 339 -312 446 -366 661 -38 151
-45 271 -45 756 0 479 -4 546 -47 710 -72 276 -202 496 -415 701 -206 198
-451 328 -726 383 l-87 18 -6 45 c-12 77 -47 127 -116 162 -40 20 -109 28
-144 17z m266 -657 c197 -41 367 -130 514 -269 161 -153 263 -333 317 -563 13
-55 18 -168 23 -637 6 -484 10 -583 25 -655 62 -304 166 -531 366 -798 l32
-42 -1492 0 -1492 0 32 43 c198 265 298 483 367 800 12 58 17 185 23 647 7
531 9 582 28 662 51 213 154 392 313 543 164 155 377 256 604 285 87 11 247 4
340 -16z m145 -3404 c0 -5 -26 -36 -57 -68 -172 -174 -434 -174 -605 0 -32 32
-58 63 -58 68 0 6 133 10 360 10 227 0 360 -4 360 -10z"/>
</g>
</svg>
