<?xml version="1.0" standalone="no"?>
<!DOCTYPE svg PUBLIC "-//W3C//DTD SVG 20010904//EN"
 "http://www.w3.org/TR/2001/REC-SVG-20010904/DTD/svg10.dtd">
<svg version="1.0" xmlns="http://www.w3.org/2000/svg"
 width="16px" height="12px" viewBox="0 0 48.000000 48.000000"
 preserveAspectRatio="xMidYMid meet">

<g transform="translate(0.000000,48.000000) scale(0.100000,-0.100000)"
fill="#000000" stroke="none">
<path d="M48 373 l-28 -4 0 -126 0 -125 31 6 c17 3 42 6 55 6 24 0 24 0 24
125 l0 125 -27 -1 c-16 -1 -40 -4 -55 -6z"/>
<path d="M388 353 l-38 -4 0 -125 c0 -138 -5 -130 73 -118 l37 7 0 123 c0 112
-2 124 -17 122 -10 -1 -35 -3 -55 -5z"/>
<path d="M230 319 c0 -5 -4 -7 -10 -4 -6 3 -10 -4 -10 -18 0 -20 -4 -23 -23
-20 -19 4 -23 1 -22 -16 1 -11 9 -29 18 -39 9 -10 17 -23 17 -29 0 -5 14 -10
31 -11 17 0 33 -3 36 -6 8 -8 47 44 50 66 3 16 -12 23 -39 19 -5 0 -8 8 -8 20
0 11 -6 27 -14 35 -17 17 -26 18 -26 3z"/>
</g>
</svg>
