<svg id="svg" xmlns="http://www.w3.org/2000/svg" xmlns:xlink="http://www.w3.org/1999/xlink" width="24px" height="24px" viewBox="0, 0, 400,400"><g id="svgg"><path id="path0" d="M77.299 1.787 C 63.557 6.472,53.371 16.824,49.190 30.356 C 46.782 38.150,46.782 361.850,49.190 369.644 C 53.371 383.176,63.557 393.528,77.299 398.213 L 82.422 399.960 200.000 399.960 L 317.578 399.960 322.701 398.213 C 336.498 393.510,346.702 383.104,350.828 369.531 C 352.343 364.549,352.368 362.000,352.162 233.984 L 351.953 103.516 350.143 99.035 C 346.421 89.817,343.318 86.483,302.796 48.147 C 260.296 7.941,259.294 7.045,253.724 4.212 C 245.225 -0.111,247.625 -0.002,161.750 0.020 L 82.422 0.040 77.299 1.787 M230.642 60.742 L 230.859 98.047 232.779 101.953 C 235.232 106.945,240.711 112.424,245.703 114.877 L 249.609 116.797 289.274 117.019 L 328.939 117.242 328.727 239.285 L 328.516 361.328 326.192 365.524 C 323.848 369.756,321.418 372.038,316.406 374.712 C 313.772 376.118,309.499 376.172,200.000 376.172 L 86.328 376.172 82.422 374.101 C 77.840 371.672,75.853 369.648,73.330 364.844 L 71.484 361.328 71.484 200.000 L 71.484 38.672 73.330 35.156 C 79.656 23.110,75.557 23.655,160.720 23.535 L 230.425 23.438 230.642 60.742 M289.328 69.084 L 314.985 93.359 287.766 93.585 C 257.078 93.839,255.719 93.729,254.652 90.923 C 254.231 89.816,253.906 77.365,253.906 62.365 L 253.906 35.769 258.789 40.289 C 261.475 42.775,275.217 55.733,289.328 69.084 M105.189 157.733 C 101.540 160.138,100.010 163.162,100.010 167.969 C 100.010 172.775,101.540 175.800,105.189 178.205 C 108.678 180.506,286.634 180.506,290.124 178.205 C 297.263 173.498,297.263 162.439,290.124 157.733 C 286.634 155.432,108.678 155.432,105.189 157.733 M105.189 220.233 C 101.540 222.638,100.010 225.662,100.010 230.469 C 100.010 235.275,101.540 238.300,105.189 240.705 C 107.344 242.126,110.573 242.177,197.656 242.177 C 284.740 242.177,287.969 242.126,290.124 240.705 C 297.263 235.998,297.263 224.939,290.124 220.233 C 286.634 217.932,108.678 217.932,105.189 220.233 M105.189 282.733 C 101.540 285.138,100.010 288.162,100.010 292.969 C 100.010 297.775,101.540 300.800,105.189 303.205 C 107.286 304.588,109.396 304.677,139.844 304.679 C 176.070 304.682,175.406 304.778,178.910 299.031 C 182.161 293.700,180.246 286.122,174.812 282.808 C 170.966 280.463,108.733 280.396,105.189 282.733 " stroke="none" fill="#757D8A" fill-rule="evenodd"></path></g></svg>